<?xml version="1.0" encoding="UTF-8" standalone="no"?>
<!DOCTYPE svg PUBLIC "-//W3C//DTD SVG 1.1//EN"
 "http://www.w3.org/Graphics/SVG/1.1/DTD/svg11.dtd">
<!-- Generated by graphviz version 13.0.1 (20250615.1724)
 -->
<!-- Title: gridfire::engine::DynamicEngine Pages: 1 -->
<svg width="634pt" height="174pt"
 viewBox="0.00 0.00 634.00 174.00" xmlns="http://www.w3.org/2000/svg" xmlns:xlink="http://www.w3.org/1999/xlink">
<g id="graph0" class="graph" transform="scale(1 1) rotate(0) translate(4 169.5)">
<title>gridfire::engine::DynamicEngine</title>
<!-- Node1 -->
<g id="Node000001" class="node">
<title>Node1</title>
<g id="a_Node000001"><a xlink:title="Abstract class for engines supporting Jacobian and stoichiometry operations.">
<polygon fill="#999999" stroke="#666666" points="276.5,-94.5 151.75,-94.5 151.75,-64 276.5,-64 276.5,-94.5"/>
<text xml:space="preserve" text-anchor="start" x="159.75" y="-81" font-family="Helvetica,sans-Serif" font-size="10.00">gridfire::engine::Dynamic</text>
<text xml:space="preserve" text-anchor="middle" x="214.12" y="-69.75" font-family="Helvetica,sans-Serif" font-size="10.00">Engine</text>
</a>
</g>
</g>
<!-- Node3 -->
<g id="Node000003" class="node">
<title>Node3</title>
<g id="a_Node000003"><a xlink:href="classgridfire_1_1engine_1_1_adaptive_engine_view.html" target="_top" xlink:title="An engine view that dynamically adapts the reaction network based on runtime conditions.">
<polygon fill="white" stroke="#666666" points="445.5,-165.5 321.5,-165.5 321.5,-135 445.5,-135 445.5,-165.5"/>
<text xml:space="preserve" text-anchor="start" x="329.5" y="-152" font-family="Helvetica,sans-Serif" font-size="10.00">gridfire::engine::Adaptive</text>
<text xml:space="preserve" text-anchor="middle" x="383.5" y="-140.75" font-family="Helvetica,sans-Serif" font-size="10.00">EngineView</text>
</a>
</g>
</g>
<!-- Node1&#45;&gt;Node3 -->
<g id="edge2_Node000001_Node000003" class="edge">
<title>Node1&#45;&gt;Node3</title>
<g id="a_edge2_Node000001_Node000003"><a xlink:title=" ">
<path fill="none" stroke="#63b8ff" d="M256.59,-99.94C273.72,-108.2 293.9,-117.56 312.5,-125.25 320.25,-128.46 328.58,-131.65 336.69,-134.62"/>
<polygon fill="#63b8ff" stroke="#63b8ff" points="258.23,-96.85 247.71,-95.62 255.17,-103.14 258.23,-96.85"/>
</a>
</g>
</g>
<!-- Node4 -->
<g id="Node000004" class="node">
<title>Node4</title>
<g id="a_Node000004"><a xlink:href="classgridfire_1_1engine_1_1_defined_engine_view.html" target="_top" xlink:title=" ">
<polygon fill="white" stroke="#666666" points="443.25,-116.5 323.75,-116.5 323.75,-86 443.25,-86 443.25,-116.5"/>
<text xml:space="preserve" text-anchor="start" x="331.75" y="-103" font-family="Helvetica,sans-Serif" font-size="10.00">gridfire::engine::Defined</text>
<text xml:space="preserve" text-anchor="middle" x="383.5" y="-91.75" font-family="Helvetica,sans-Serif" font-size="10.00">EngineView</text>
</a>
</g>
</g>
<!-- Node1&#45;&gt;Node4 -->
<g id="edge3_Node000001_Node000004" class="edge">
<title>Node1&#45;&gt;Node4</title>
<g id="a_edge3_Node000001_Node000004"><a xlink:title=" ">
<path fill="none" stroke="#63b8ff" d="M288.15,-88.85C299.94,-90.4 312.01,-91.98 323.41,-93.48"/>
<polygon fill="#63b8ff" stroke="#63b8ff" points="288.85,-85.41 278.47,-87.58 287.93,-92.35 288.85,-85.41"/>
</a>
</g>
</g>
<!-- Node7 -->
<g id="Node000007" class="node">
<title>Node7</title>
<g id="a_Node000007"><a xlink:href="classgridfire_1_1engine_1_1_graph_engine.html" target="_top" xlink:title="A reaction network engine that uses a graph&#45;based representation.">
<polygon fill="white" stroke="#666666" points="454.5,-67.88 312.5,-67.88 312.5,-48.62 454.5,-48.62 454.5,-67.88"/>
<text xml:space="preserve" text-anchor="middle" x="383.5" y="-54.38" font-family="Helvetica,sans-Serif" font-size="10.00">gridfire::engine::GraphEngine</text>
</a>
</g>
</g>
<!-- Node1&#45;&gt;Node7 -->
<g id="edge6_Node000001_Node000007" class="edge">
<title>Node1&#45;&gt;Node7</title>
<g id="a_edge6_Node000001_Node000007"><a xlink:title=" ">
<path fill="none" stroke="#63b8ff" d="M288.13,-70.09C296.11,-69.09 304.21,-68.07 312.15,-67.08"/>
<polygon fill="#63b8ff" stroke="#63b8ff" points="287.96,-66.58 278.48,-71.3 288.83,-73.53 287.96,-66.58"/>
</a>
</g>
</g>
<!-- Node8 -->
<g id="Node000008" class="node">
<title>Node8</title>
<g id="a_Node000008"><a xlink:href="classgridfire_1_1engine_1_1_multiscale_partitioning_engine_view.html" target="_top" xlink:title="An engine view that partitions the reaction network into multiple groups based on timescales.">
<polygon fill="white" stroke="#666666" points="448.5,-30.5 318.5,-30.5 318.5,0 448.5,0 448.5,-30.5"/>
<text xml:space="preserve" text-anchor="start" x="326.5" y="-17" font-family="Helvetica,sans-Serif" font-size="10.00">gridfire::engine::Multiscale</text>
<text xml:space="preserve" text-anchor="middle" x="383.5" y="-5.75" font-family="Helvetica,sans-Serif" font-size="10.00">PartitioningEngineView</text>
</a>
</g>
</g>
<!-- Node1&#45;&gt;Node8 -->
<g id="edge7_Node000001_Node000008" class="edge">
<title>Node1&#45;&gt;Node8</title>
<g id="a_edge7_Node000001_Node000008"><a xlink:title=" ">
<path fill="none" stroke="#63b8ff" d="M262.51,-59.12C278.33,-52.58 296.1,-45.42 312.5,-39.25 319.95,-36.44 327.9,-33.59 335.67,-30.87"/>
<polygon fill="#63b8ff" stroke="#63b8ff" points="261.2,-55.88 253.31,-62.95 263.89,-62.34 261.2,-55.88"/>
</a>
</g>
</g>
<!-- Node2 -->
<g id="Node000002" class="node">
<title>Node2</title>
<g id="a_Node000002"><a xlink:href="classgridfire_1_1engine_1_1_engine.html" target="_top" xlink:title="Abstract base class for a reaction network engine.">
<polygon fill="white" stroke="#666666" points="115.75,-88.88 0,-88.88 0,-69.62 115.75,-69.62 115.75,-88.88"/>
<text xml:space="preserve" text-anchor="middle" x="57.88" y="-75.38" font-family="Helvetica,sans-Serif" font-size="10.00">gridfire::engine::Engine</text>
</a>
</g>
</g>
<!-- Node2&#45;&gt;Node1 -->
<g id="edge1_Node000001_Node000002" class="edge">
<title>Node2&#45;&gt;Node1</title>
<g id="a_edge1_Node000001_Node000002"><a xlink:title=" ">
<path fill="none" stroke="#63b8ff" d="M127.17,-79.25C135.25,-79.25 143.46,-79.25 151.44,-79.25"/>
<polygon fill="#63b8ff" stroke="#63b8ff" points="127.39,-75.75 117.39,-79.25 127.39,-82.75 127.39,-75.75"/>
</a>
</g>
</g>
<!-- Node5 -->
<g id="Node000005" class="node">
<title>Node5</title>
<g id="a_Node000005"><a xlink:href="classgridfire_1_1engine_1_1_file_defined_engine_view.html" target="_top" xlink:title=" ">
<polygon fill="white" stroke="#666666" points="625.75,-140.5 490.5,-140.5 490.5,-110 625.75,-110 625.75,-140.5"/>
<text xml:space="preserve" text-anchor="start" x="498.5" y="-127" font-family="Helvetica,sans-Serif" font-size="10.00">gridfire::engine::FileDefined</text>
<text xml:space="preserve" text-anchor="middle" x="558.12" y="-115.75" font-family="Helvetica,sans-Serif" font-size="10.00">EngineView</text>
</a>
</g>
</g>
<!-- Node4&#45;&gt;Node5 -->
<g id="edge4_Node000004_Node000005" class="edge">
<title>Node4&#45;&gt;Node5</title>
<g id="a_edge4_Node000004_Node000005"><a xlink:title=" ">
<path fill="none" stroke="#63b8ff" d="M454.54,-110.99C466.3,-112.62 478.48,-114.32 490.16,-115.94"/>
<polygon fill="#63b8ff" stroke="#63b8ff" points="455.31,-107.56 444.92,-109.65 454.35,-114.49 455.31,-107.56"/>
</a>
</g>
</g>
<!-- Node6 -->
<g id="Node000006" class="node">
<title>Node6</title>
<g id="a_Node000006"><a xlink:href="classgridfire_1_1engine_1_1_network_priming_engine_view.html" target="_top" xlink:title="Provides a view of a DynamicEngine filtered to reactions involving a specified priming species.">
<polygon fill="white" stroke="#666666" points="619.38,-91.5 496.88,-91.5 496.88,-61 619.38,-61 619.38,-91.5"/>
<text xml:space="preserve" text-anchor="start" x="504.88" y="-78" font-family="Helvetica,sans-Serif" font-size="10.00">gridfire::engine::Network</text>
<text xml:space="preserve" text-anchor="middle" x="558.12" y="-66.75" font-family="Helvetica,sans-Serif" font-size="10.00">PrimingEngineView</text>
</a>
</g>
</g>
<!-- Node4&#45;&gt;Node6 -->
<g id="edge5_Node000004_Node000006" class="edge">
<title>Node4&#45;&gt;Node6</title>
<g id="a_edge5_Node000004_Node000006"><a xlink:title=" ">
<path fill="none" stroke="#63b8ff" d="M454.43,-91.12C468.34,-89.11 482.84,-87.01 496.41,-85.04"/>
<polygon fill="#63b8ff" stroke="#63b8ff" points="454.32,-87.6 444.92,-92.5 455.32,-94.53 454.32,-87.6"/>
</a>
</g>
</g>
</g>
</svg>
