<?xml version="1.0" encoding="UTF-8" standalone="no"?>
<!DOCTYPE svg PUBLIC "-//W3C//DTD SVG 1.1//EN"
 "http://www.w3.org/Graphics/SVG/1.1/DTD/svg11.dtd">
<!-- Generated by graphviz version 14.1.2 (20260124.0452)
 -->
<!-- Title: src/include/gridfire/engine/scratchpads/types.h Pages: 1 -->
<svg width="147pt" height="94pt"
 viewBox="0.00 0.00 147.00 94.00" xmlns="http://www.w3.org/2000/svg" xmlns:xlink="http://www.w3.org/1999/xlink">
<g id="graph0" class="graph" transform="scale(1 1) rotate(0) translate(4 89.75)">
<title>src/include/gridfire/engine/scratchpads/types.h</title>
<!-- Node1 -->
<g id="Node000001" class="node">
<title>Node1</title>
<g id="a_Node000001"><a xlink:title="Type definitions and utilities for the scratchpad system.">
<polygon fill="#999999" stroke="#666666" points="139,-85.75 0,-85.75 0,-55.25 139,-55.25 139,-85.75"/>
<text xml:space="preserve" text-anchor="start" x="8" y="-72.25" font-family="Helvetica,sans-Serif" font-size="10.00">src/include/gridfire</text>
<text xml:space="preserve" text-anchor="middle" x="69.5" y="-61" font-family="Helvetica,sans-Serif" font-size="10.00">/engine/scratchpads/types.h</text>
</a>
</g>
</g>
<!-- Node2 -->
<g id="Node000002" class="node">
<title>Node2</title>
<g id="a_Node000002"><a xlink:title=" ">
<polygon fill="#e0e0e0" stroke="#999999" points="56.12,-19.25 10.88,-19.25 10.88,0 56.12,0 56.12,-19.25"/>
<text xml:space="preserve" text-anchor="middle" x="33.5" y="-5.75" font-family="Helvetica,sans-Serif" font-size="10.00">cstdint</text>
</a>
</g>
</g>
<!-- Node1&#45;&gt;Node2 -->
<g id="edge1_Node000001_Node000002" class="edge">
<title>Node1&#45;&gt;Node2</title>
<g id="a_edge1_Node000001_Node000002"><a xlink:title=" ">
<path fill="none" stroke="#63b8ff" d="M60.6,-54.95C55.86,-47.19 49.97,-37.56 44.9,-29.26"/>
<polygon fill="#63b8ff" stroke="#63b8ff" points="48.04,-27.7 39.84,-20.99 42.07,-31.35 48.04,-27.7"/>
</a>
</g>
</g>
<!-- Node3 -->
<g id="Node000003" class="node">
<title>Node3</title>
<g id="a_Node000003"><a xlink:title=" ">
<polygon fill="#e0e0e0" stroke="#999999" points="139.25,-19.25 73.75,-19.25 73.75,0 139.25,0 139.25,-19.25"/>
<text xml:space="preserve" text-anchor="middle" x="106.5" y="-5.75" font-family="Helvetica,sans-Serif" font-size="10.00">string_view</text>
</a>
</g>
</g>
<!-- Node1&#45;&gt;Node3 -->
<g id="edge2_Node000001_Node000003" class="edge">
<title>Node1&#45;&gt;Node3</title>
<g id="a_edge2_Node000001_Node000003"><a xlink:title=" ">
<path fill="none" stroke="#63b8ff" d="M78.65,-54.95C83.52,-47.19 89.57,-37.56 94.79,-29.26"/>
<polygon fill="#63b8ff" stroke="#63b8ff" points="97.63,-31.31 99.99,-20.98 91.71,-27.59 97.63,-31.31"/>
</a>
</g>
</g>
</g>
</svg>
