<?xml version="1.0" encoding="UTF-8" standalone="no"?>
<!DOCTYPE svg PUBLIC "-//W3C//DTD SVG 1.1//EN"
 "http://www.w3.org/Graphics/SVG/1.1/DTD/svg11.dtd">
<!-- Generated by graphviz version 13.0.1 (20250615.1724)
 -->
<!-- Title: src/python/io/trampoline/py_io.h Pages: 1 -->
<svg width="471pt" height="216pt"
 viewBox="0.00 0.00 471.00 216.00" xmlns="http://www.w3.org/2000/svg" xmlns:xlink="http://www.w3.org/1999/xlink">
<g id="graph0" class="graph" transform="scale(1 1) rotate(0) translate(4 211.5)">
<title>src/python/io/trampoline/py_io.h</title>
<!-- Node1 -->
<g id="Node000001" class="node">
<title>Node1</title>
<g id="a_Node000001"><a xlink:title=" ">
<polygon fill="#999999" stroke="#666666" points="366.5,-207.5 246.25,-207.5 246.25,-177 366.5,-177 366.5,-207.5"/>
<text xml:space="preserve" text-anchor="start" x="254.25" y="-194" font-family="Helvetica,sans-Serif" font-size="10.00">src/python/io/trampoline</text>
<text xml:space="preserve" text-anchor="middle" x="306.38" y="-182.75" font-family="Helvetica,sans-Serif" font-size="10.00">/py_io.h</text>
</a>
</g>
</g>
<!-- Node2 -->
<g id="Node000002" class="node">
<title>Node2</title>
<g id="a_Node000002"><a xlink:href="io_8h.html" target="_top" xlink:title=" ">
<polygon fill="white" stroke="#666666" points="343.62,-141 269.12,-141 269.12,-121.75 343.62,-121.75 343.62,-141"/>
<text xml:space="preserve" text-anchor="middle" x="306.38" y="-127.5" font-family="Helvetica,sans-Serif" font-size="10.00">gridfire/io/io.h</text>
</a>
</g>
</g>
<!-- Node1&#45;&gt;Node2 -->
<g id="edge1_Node000001_Node000002" class="edge">
<title>Node1&#45;&gt;Node2</title>
<g id="a_edge1_Node000001_Node000002"><a xlink:title=" ">
<path fill="none" stroke="#63b8ff" d="M306.38,-176.7C306.38,-169.46 306.38,-160.59 306.38,-152.69"/>
<polygon fill="#63b8ff" stroke="#63b8ff" points="309.88,-152.96 306.38,-142.96 302.88,-152.96 309.88,-152.96"/>
</a>
</g>
</g>
<!-- Node3 -->
<g id="Node000003" class="node">
<title>Node3</title>
<g id="a_Node000003"><a xlink:href="network__file_8h.html" target="_top" xlink:title=" ">
<polygon fill="white" stroke="#666666" points="353,-85.75 259.75,-85.75 259.75,-55.25 353,-55.25 353,-85.75"/>
<text xml:space="preserve" text-anchor="start" x="267.75" y="-72.25" font-family="Helvetica,sans-Serif" font-size="10.00">gridfire/io/network</text>
<text xml:space="preserve" text-anchor="middle" x="306.38" y="-61" font-family="Helvetica,sans-Serif" font-size="10.00">_file.h</text>
</a>
</g>
</g>
<!-- Node2&#45;&gt;Node3 -->
<g id="edge2_Node000002_Node000003" class="edge">
<title>Node2&#45;&gt;Node3</title>
<g id="a_edge2_Node000002_Node000003"><a xlink:title=" ">
<path fill="none" stroke="#63b8ff" d="M306.38,-121.43C306.38,-114.98 306.38,-105.91 306.38,-97.26"/>
<polygon fill="#63b8ff" stroke="#63b8ff" points="309.88,-97.55 306.38,-87.55 302.88,-97.55 309.88,-97.55"/>
</a>
</g>
</g>
<!-- Node4 -->
<g id="Node000004" class="node">
<title>Node4</title>
<g id="a_Node000004"><a xlink:title=" ">
<polygon fill="#e0e0e0" stroke="#999999" points="112.75,-19.25 0,-19.25 0,0 112.75,0 112.75,-19.25"/>
<text xml:space="preserve" text-anchor="middle" x="56.38" y="-5.75" font-family="Helvetica,sans-Serif" font-size="10.00">fourdst/config/config.h</text>
</a>
</g>
</g>
<!-- Node3&#45;&gt;Node4 -->
<g id="edge3_Node000003_Node000004" class="edge">
<title>Node3&#45;&gt;Node4</title>
<g id="a_edge3_Node000003_Node000004"><a xlink:title=" ">
<path fill="none" stroke="#63b8ff" d="M259.35,-58.43C215.63,-48.13 150.72,-32.84 106.14,-22.35"/>
<polygon fill="#63b8ff" stroke="#63b8ff" points="107,-18.95 96.47,-20.07 105.4,-25.77 107,-18.95"/>
</a>
</g>
</g>
<!-- Node5 -->
<g id="Node000005" class="node">
<title>Node5</title>
<g id="a_Node000005"><a xlink:title=" ">
<polygon fill="#e0e0e0" stroke="#999999" points="252.25,-19.25 130.5,-19.25 130.5,0 252.25,0 252.25,-19.25"/>
<text xml:space="preserve" text-anchor="middle" x="191.38" y="-5.75" font-family="Helvetica,sans-Serif" font-size="10.00">fourdst/logging/logging.h</text>
</a>
</g>
</g>
<!-- Node3&#45;&gt;Node5 -->
<g id="edge4_Node000003_Node000005" class="edge">
<title>Node3&#45;&gt;Node5</title>
<g id="a_edge4_Node000003_Node000005"><a xlink:title=" ">
<path fill="none" stroke="#63b8ff" d="M277.65,-54.8C259.63,-45.57 236.54,-33.75 218.77,-24.65"/>
<polygon fill="#63b8ff" stroke="#63b8ff" points="220.85,-21.79 210.36,-20.34 217.66,-28.02 220.85,-21.79"/>
</a>
</g>
</g>
<!-- Node6 -->
<g id="Node000006" class="node">
<title>Node6</title>
<g id="a_Node000006"><a xlink:title=" ">
<polygon fill="#e0e0e0" stroke="#999999" points="342.88,-19.25 269.88,-19.25 269.88,0 342.88,0 342.88,-19.25"/>
<text xml:space="preserve" text-anchor="middle" x="306.38" y="-5.75" font-family="Helvetica,sans-Serif" font-size="10.00">quill/Logger.h</text>
</a>
</g>
</g>
<!-- Node3&#45;&gt;Node6 -->
<g id="edge5_Node000003_Node000006" class="edge">
<title>Node3&#45;&gt;Node6</title>
<g id="a_edge5_Node000003_Node000006"><a xlink:title=" ">
<path fill="none" stroke="#63b8ff" d="M306.38,-54.95C306.38,-47.71 306.38,-38.84 306.38,-30.94"/>
<polygon fill="#63b8ff" stroke="#63b8ff" points="309.88,-31.21 306.38,-21.21 302.88,-31.21 309.88,-31.21"/>
</a>
</g>
</g>
<!-- Node7 -->
<g id="Node000007" class="node">
<title>Node7</title>
<g id="a_Node000007"><a xlink:title=" ">
<polygon fill="#e0e0e0" stroke="#999999" points="401.38,-19.25 361.38,-19.25 361.38,0 401.38,0 401.38,-19.25"/>
<text xml:space="preserve" text-anchor="middle" x="381.38" y="-5.75" font-family="Helvetica,sans-Serif" font-size="10.00">string</text>
</a>
</g>
</g>
<!-- Node3&#45;&gt;Node7 -->
<g id="edge6_Node000003_Node000007" class="edge">
<title>Node3&#45;&gt;Node7</title>
<g id="a_edge6_Node000003_Node000007"><a xlink:title=" ">
<path fill="none" stroke="#63b8ff" d="M324.91,-54.95C335.89,-46.33 349.82,-35.4 361.09,-26.55"/>
<polygon fill="#63b8ff" stroke="#63b8ff" points="362.92,-29.56 368.62,-20.64 358.6,-24.06 362.92,-29.56"/>
</a>
</g>
</g>
<!-- Node8 -->
<g id="Node000008" class="node">
<title>Node8</title>
<g id="a_Node000008"><a xlink:title=" ">
<polygon fill="#e0e0e0" stroke="#999999" points="462.88,-19.25 419.88,-19.25 419.88,0 462.88,0 462.88,-19.25"/>
<text xml:space="preserve" text-anchor="middle" x="441.38" y="-5.75" font-family="Helvetica,sans-Serif" font-size="10.00">vector</text>
</a>
</g>
</g>
<!-- Node3&#45;&gt;Node8 -->
<g id="edge7_Node000003_Node000008" class="edge">
<title>Node3&#45;&gt;Node8</title>
<g id="a_edge7_Node000003_Node000008"><a xlink:title=" ">
<path fill="none" stroke="#63b8ff" d="M340.09,-54.8C361.64,-45.4 389.38,-33.3 410.37,-24.14"/>
<polygon fill="#63b8ff" stroke="#63b8ff" points="411.52,-27.46 419.28,-20.26 408.72,-21.05 411.52,-27.46"/>
</a>
</g>
</g>
</g>
</svg>
