<?xml version="1.0" encoding="UTF-8" standalone="no"?>
<!DOCTYPE svg PUBLIC "-//W3C//DTD SVG 1.1//EN"
 "http://www.w3.org/Graphics/SVG/1.1/DTD/svg11.dtd">
<!-- Generated by graphviz version 13.0.1 (20250615.1724)
 -->
<!-- Title: gridfire::MultiscalePartitioningEngineView::EigenFunctor Pages: 1 -->
<!--zoomable 438 -->

<svg id="main" version="1.1" xmlns="http://www.w3.org/2000/svg" xmlns:xlink="http://www.w3.org/1999/xlink" xml:space="preserve" onload="init(evt)">

<style type="text/css"><![CDATA[
.node, .edge {opacity: 0.7;}
.node.selected, .edge.selected {opacity: 1;}
.edge:hover path { stroke: red; }
.edge:hover polygon { stroke: red; fill: red; }
]]></style>

<defs>
  <circle id="rim" cx="0" cy="0" r="7"/>
  <circle id="rim2" cx="0" cy="0" r="3.5"/>
  <g id="zoomPlus">
    <use xlink:href="#rim" fill="#404040"><set attributeName="fill" to="#808080" begin="zoomplus.mouseover" end="zoomplus.mouseout"/></use>
    <path d="M-4,0h8M0,-4v8" fill="none" stroke="white" stroke-width="1.5" pointer-events="none"/>
  </g>
  <g id="zoomMin">
    <use xlink:href="#rim" fill="#404040"><set attributeName="fill" to="#808080" begin="zoomminus.mouseover" end="zoomminus.mouseout"/></use>
    <path d="M-4,0h8" fill="none" stroke="white" stroke-width="1.5" pointer-events="none"/>
  </g>
  <g id="arrowUp" transform="translate(30 24)">
    <use xlink:href="#rim"/>
    <path pointer-events="none" fill="none" stroke="white" stroke-width="1.5" d="M0,-3.0v7 M-2.5,-0.5L0,-3.0L2.5,-0.5"/>
  </g>
  <g id="arrowRight" transform="rotate(90) translate(36 -43)">
    <use xlink:href="#rim"/>
    <path pointer-events="none" fill="none" stroke="white" stroke-width="1.5" d="M0,-3.0v7 M-2.5,-0.5L0,-3.0L2.5,-0.5"/>
  </g>
  <g id="arrowDown" transform="rotate(180) translate(-30 -48)">
    <use xlink:href="#rim"/>
    <path pointer-events="none" fill="none" stroke="white" stroke-width="1.5" d="M0,-3.0v7 M-2.5,-0.5L0,-3.0L2.5,-0.5"/>
  </g>
  <g id="arrowLeft" transform="rotate(270) translate(-36 17)">
    <use xlink:href="#rim"/>
    <path pointer-events="none" fill="none" stroke="white" stroke-width="1.5" d="M0,-3.0v7 M-2.5,-0.5L0,-3.0L2.5,-0.5"/>
  </g>
  <g id="resetDef">
    <use xlink:href="#rim2" fill="#404040"><set attributeName="fill" to="#808080" begin="reset.mouseover" end="reset.mouseout"/></use>
  </g>
</defs>
<script type="application/ecmascript">
var viewWidth = 1376;
var viewHeight = 438;
var sectionId = 'dynsection-0';
</script>
<script type="application/ecmascript" xlink:href="svg.min.js"/>
<svg id="graph" class="graph">
<g id="viewport">
<title>gridfire::MultiscalePartitioningEngineView::EigenFunctor</title>
<!-- Node1 -->
<g id="Node000001" class="node">
<title>Node1</title>
<g id="a_Node000001"><a xlink:title="Functor for solving QSE abundances using Eigen&#39;s nonlinear optimization.">
<polygon fill="#999999" stroke="#666666" points="1367.5,-223.12 1223.25,-223.12 1223.25,-192.62 1367.5,-192.62 1367.5,-223.12"/>
<text xml:space="preserve" text-anchor="start" x="1231.25" y="-209.62" font-family="Helvetica,sans-Serif" font-size="10.00">gridfire::MultiscalePartitioning</text>
<text xml:space="preserve" text-anchor="middle" x="1295.38" y="-198.38" font-family="Helvetica,sans-Serif" font-size="10.00">EngineView::EigenFunctor</text>
</a>
</g>
</g>
<!-- Node2 -->
<g id="Node000002" class="node">
<title>Node2</title>
<g id="a_Node000002"><a xlink:href="classgridfire_1_1_multiscale_partitioning_engine_view.html" target="_top" xlink:title="An engine view that partitions the reaction network into multiple groups based on timescales.">
<polygon fill="white" stroke="#666666" points="1087.5,-223.12 943.25,-223.12 943.25,-192.62 1087.5,-192.62 1087.5,-223.12"/>
<text xml:space="preserve" text-anchor="start" x="951.25" y="-209.62" font-family="Helvetica,sans-Serif" font-size="10.00">gridfire::MultiscalePartitioning</text>
<text xml:space="preserve" text-anchor="middle" x="1015.38" y="-198.38" font-family="Helvetica,sans-Serif" font-size="10.00">EngineView</text>
</a>
</g>
</g>
<!-- Node2&#45;&gt;Node1 -->
<g id="edge1_Node000001_Node000002" class="edge">
<title>Node2&#45;&gt;Node1</title>
<g id="a_edge1_Node000001_Node000002"><a xlink:title=" ">
<path fill="none" stroke="#9a32cd" stroke-dasharray="5,2" d="M1099.4,-207.88C1138.75,-207.88 1185.29,-207.88 1223.03,-207.88"/>
<polygon fill="#9a32cd" stroke="#9a32cd" points="1099.48,-204.38 1089.48,-207.88 1099.48,-211.38 1099.48,-204.38"/>
</a>
</g>
<text xml:space="preserve" text-anchor="middle" x="1155.38" y="-209.62" font-family="Helvetica,sans-Serif" font-size="10.00" fill="grey"> m_view</text>
</g>
<!-- Node3 -->
<g id="Node000003" class="node">
<title>Node3</title>
<g id="a_Node000003"><a xlink:href="classgridfire_1_1_dynamic_engine.html" target="_top" xlink:title="Abstract class for engines supporting Jacobian and stoichiometry operations.">
<polygon fill="white" stroke="#666666" points="778.62,-187.5 658.38,-187.5 658.38,-168.25 778.62,-168.25 778.62,-187.5"/>
<text xml:space="preserve" text-anchor="middle" x="718.5" y="-174" font-family="Helvetica,sans-Serif" font-size="10.00">gridfire::DynamicEngine</text>
</a>
</g>
</g>
<!-- Node3&#45;&gt;Node2 -->
<g id="edge2_Node000002_Node000003" class="edge">
<title>Node3&#45;&gt;Node2</title>
<g id="a_edge2_Node000002_Node000003"><a xlink:title=" ">
<path fill="none" stroke="#63b8ff" d="M789.98,-169.67C830.06,-166.87 880.95,-166.47 925.25,-175.88 933.81,-177.69 935.09,-180.69 943.25,-183.88 950.53,-186.72 958.31,-189.54 965.95,-192.21"/>
<polygon fill="#63b8ff" stroke="#63b8ff" points="789.92,-166.17 780.22,-170.43 790.46,-173.15 789.92,-166.17"/>
</a>
</g>
</g>
<!-- Node3&#45;&gt;Node2 -->
<g id="edge5_Node000002_Node000003" class="edge">
<title>Node3&#45;&gt;Node2</title>
<g id="a_edge5_Node000002_Node000003"><a xlink:title=" ">
<path fill="none" stroke="#9a32cd" stroke-dasharray="5,2" d="M790.4,-183.73C830.1,-187.15 880.46,-191.76 925.25,-196.62 930.99,-197.25 936.93,-197.93 942.89,-198.63"/>
<polygon fill="#9a32cd" stroke="#9a32cd" points="790.75,-180.24 780.49,-182.88 790.15,-187.22 790.75,-180.24"/>
</a>
</g>
<text xml:space="preserve" text-anchor="middle" x="867.12" y="-198.38" font-family="Helvetica,sans-Serif" font-size="10.00" fill="grey"> m_baseEngine</text>
</g>
<!-- Node4 -->
<g id="Node000004" class="node">
<title>Node4</title>
<g id="a_Node000004"><a xlink:href="classgridfire_1_1_engine.html" target="_top" xlink:title="Abstract base class for a reaction network engine.">
<polygon fill="white" stroke="#666666" points="490,-187.5 408.75,-187.5 408.75,-168.25 490,-168.25 490,-187.5"/>
<text xml:space="preserve" text-anchor="middle" x="449.38" y="-174" font-family="Helvetica,sans-Serif" font-size="10.00">gridfire::Engine</text>
</a>
</g>
</g>
<!-- Node4&#45;&gt;Node3 -->
<g id="edge3_Node000003_Node000004" class="edge">
<title>Node4&#45;&gt;Node3</title>
<g id="a_edge3_Node000003_Node000004"><a xlink:title=" ">
<path fill="none" stroke="#63b8ff" d="M501.82,-177.88C546.45,-177.88 611.05,-177.88 657.91,-177.88"/>
<polygon fill="#63b8ff" stroke="#63b8ff" points="501.88,-174.38 491.88,-177.88 501.88,-181.38 501.88,-174.38"/>
</a>
</g>
</g>
<!-- Node5 -->
<g id="Node000005" class="node">
<title>Node5</title>
<g id="a_Node000005"><a xlink:href="classgridfire_1_1_engine_view.html" target="_top" xlink:title=" ">
<polygon fill="white" stroke="#666666" points="770,-236.12 667,-236.12 667,-205.62 770,-205.62 770,-236.12"/>
<text xml:space="preserve" text-anchor="start" x="675" y="-222.62" font-family="Helvetica,sans-Serif" font-size="10.00">gridfire::EngineView</text>
<text xml:space="preserve" text-anchor="middle" x="718.5" y="-211.38" font-family="Helvetica,sans-Serif" font-size="10.00">&lt; DynamicEngine &gt;</text>
</a>
</g>
</g>
<!-- Node5&#45;&gt;Node2 -->
<g id="edge4_Node000002_Node000005" class="edge">
<title>Node5&#45;&gt;Node2</title>
<g id="a_edge4_Node000002_Node000005"><a xlink:title=" ">
<path fill="none" stroke="#63b8ff" d="M781.47,-218.14C828.59,-216.07 893.51,-213.2 942.84,-211.03"/>
<polygon fill="#63b8ff" stroke="#63b8ff" points="781.54,-214.64 771.7,-218.57 781.85,-221.63 781.54,-214.64"/>
</a>
</g>
</g>
<!-- Node6 -->
<g id="Node000006" class="node">
<title>Node6</title>
<g id="a_Node000006"><a xlink:title=" ">
<polygon fill="white" stroke="#666666" points="791,-344.75 646,-344.75 646,-303 791,-303 791,-344.75"/>
<text xml:space="preserve" text-anchor="start" x="654" y="-331.25" font-family="Helvetica,sans-Serif" font-size="10.00">std::vector&lt; gridfire</text>
<text xml:space="preserve" text-anchor="start" x="654" y="-320" font-family="Helvetica,sans-Serif" font-size="10.00">::MultiscalePartitioningEngine</text>
<text xml:space="preserve" text-anchor="middle" x="718.5" y="-308.75" font-family="Helvetica,sans-Serif" font-size="10.00">View::QSEGroup &gt;</text>
</a>
</g>
</g>
<!-- Node6&#45;&gt;Node2 -->
<g id="edge6_Node000002_Node000006" class="edge">
<title>Node6&#45;&gt;Node2</title>
<g id="a_edge6_Node000002_Node000006"><a xlink:title=" ">
<path fill="none" stroke="#9a32cd" stroke-dasharray="5,2" d="M802.49,-306.55C840.81,-297.03 886.34,-283.53 925.25,-265.88 950.47,-254.44 976.73,-236.49 994.16,-223.59"/>
<polygon fill="#9a32cd" stroke="#9a32cd" points="801.72,-303.13 792.83,-308.9 803.38,-309.94 801.72,-303.13"/>
</a>
</g>
<text xml:space="preserve" text-anchor="middle" x="867.12" y="-306.36" font-family="Helvetica,sans-Serif" font-size="10.00" fill="grey"> m_qse_groups</text>
</g>
<!-- Node7 -->
<g id="Node000007" class="node">
<title>Node7</title>
<g id="a_Node000007"><a xlink:href="structgridfire_1_1_multiscale_partitioning_engine_view_1_1_q_s_e_group.html" target="_top" xlink:title="Struct representing a QSE group.">
<polygon fill="white" stroke="#666666" points="521.5,-387.12 377.25,-387.12 377.25,-356.62 521.5,-356.62 521.5,-387.12"/>
<text xml:space="preserve" text-anchor="start" x="385.25" y="-373.62" font-family="Helvetica,sans-Serif" font-size="10.00">gridfire::MultiscalePartitioning</text>
<text xml:space="preserve" text-anchor="middle" x="449.38" y="-362.38" font-family="Helvetica,sans-Serif" font-size="10.00">EngineView::QSEGroup</text>
</a>
</g>
</g>
<!-- Node7&#45;&gt;Node6 -->
<g id="edge7_Node000006_Node000007" class="edge">
<title>Node7&#45;&gt;Node6</title>
<g id="a_edge7_Node000006_Node000007"><a xlink:title=" ">
<path fill="none" stroke="#9a32cd" stroke-dasharray="5,2" d="M532.96,-357.04C569.04,-350.55 610.96,-343.02 645.72,-336.77"/>
<polygon fill="#9a32cd" stroke="#9a32cd" points="532.67,-353.53 523.45,-358.74 533.91,-360.42 532.67,-353.53"/>
</a>
</g>
<text xml:space="preserve" text-anchor="middle" x="583.75" y="-356.73" font-family="Helvetica,sans-Serif" font-size="10.00" fill="grey"> elements</text>
</g>
<!-- Node8 -->
<g id="Node000008" class="node">
<title>Node8</title>
<g id="a_Node000008"><a xlink:title=" ">
<polygon fill="white" stroke="#666666" points="243.38,-414.12 147.88,-414.12 147.88,-383.62 243.38,-383.62 243.38,-414.12"/>
<text xml:space="preserve" text-anchor="start" x="155.88" y="-400.62" font-family="Helvetica,sans-Serif" font-size="10.00">std::set&lt; fourdst::</text>
<text xml:space="preserve" text-anchor="middle" x="195.62" y="-389.38" font-family="Helvetica,sans-Serif" font-size="10.00">atomic::Species &gt;</text>
</a>
</g>
</g>
<!-- Node8&#45;&gt;Node1 -->
<g id="edge22_Node000001_Node000008" class="edge">
<title>Node8&#45;&gt;Node1</title>
<g id="a_edge22_Node000001_Node000008"><a xlink:title=" ">
<path fill="none" stroke="#9a32cd" stroke-dasharray="5,2" d="M255.3,-406.18C306.26,-411.9 382.07,-418.88 448.38,-418.88 448.38,-418.88 448.38,-418.88 1016.38,-418.88 1145.74,-418.88 1252.68,-272.12 1284.63,-223.39"/>
<polygon fill="#9a32cd" stroke="#9a32cd" points="255.7,-402.71 245.37,-405.05 254.9,-409.66 255.7,-402.71"/>
</a>
</g>
<text xml:space="preserve" text-anchor="middle" x="718.5" y="-420.62" font-family="Helvetica,sans-Serif" font-size="10.00" fill="grey"> m_qse_solve_species</text>
</g>
<!-- Node8&#45;&gt;Node7 -->
<g id="edge8_Node000007_Node000008" class="edge">
<title>Node8&#45;&gt;Node7</title>
<g id="a_edge8_Node000007_Node000008"><a xlink:title=" ">
<path fill="none" stroke="#9a32cd" stroke-dasharray="5,2" d="M254.56,-386.14C262.49,-384.7 270.55,-383.39 278.25,-382.38 310.52,-378.14 346.47,-375.6 376.98,-374.09"/>
<polygon fill="#9a32cd" stroke="#9a32cd" points="254.14,-382.66 244.97,-387.97 255.45,-389.53 254.14,-382.66"/>
</a>
</g>
<text xml:space="preserve" text-anchor="middle" x="318.75" y="-395.38" font-family="Helvetica,sans-Serif" font-size="10.00" fill="grey"> algebraic_species</text>
<text xml:space="preserve" text-anchor="middle" x="318.75" y="-384.12" font-family="Helvetica,sans-Serif" font-size="10.00" fill="grey">seed_species</text>
</g>
<!-- Node9 -->
<g id="Node000009" class="node">
<title>Node9</title>
<g id="a_Node000009"><a xlink:title=" ">
<polygon fill="white" stroke="#666666" points="769.25,-90.12 667.75,-90.12 667.75,-59.62 769.25,-59.62 769.25,-90.12"/>
<text xml:space="preserve" text-anchor="start" x="675.75" y="-76.62" font-family="Helvetica,sans-Serif" font-size="10.00">std::vector&lt; fourdst</text>
<text xml:space="preserve" text-anchor="middle" x="718.5" y="-65.38" font-family="Helvetica,sans-Serif" font-size="10.00">::atomic::Species &gt;</text>
</a>
</g>
</g>
<!-- Node9&#45;&gt;Node2 -->
<g id="edge9_Node000002_Node000009" class="edge">
<title>Node9&#45;&gt;Node2</title>
<g id="a_edge9_Node000002_Node000009"><a xlink:title=" ">
<path fill="none" stroke="#9a32cd" stroke-dasharray="5,2" d="M780.9,-63.34C826.36,-58.56 886.82,-60.66 925.25,-95.38 955.03,-122.28 916.69,-153.78 943.25,-183.88 946.1,-187.1 949.39,-189.89 952.97,-192.31"/>
<polygon fill="#9a32cd" stroke="#9a32cd" points="780.71,-59.84 771.19,-64.51 781.54,-66.79 780.71,-59.84"/>
</a>
</g>
<text xml:space="preserve" text-anchor="middle" x="867.12" y="-108.38" font-family="Helvetica,sans-Serif" font-size="10.00" fill="grey"> m_algebraic_species</text>
<text xml:space="preserve" text-anchor="middle" x="867.12" y="-97.12" font-family="Helvetica,sans-Serif" font-size="10.00" fill="grey">m_dynamic_species</text>
</g>
<!-- Node10 -->
<g id="Node000010" class="node">
<title>Node10</title>
<g id="a_Node000010"><a xlink:title=" ">
<polygon fill="white" stroke="#666666" points="785.75,-41.75 651.25,-41.75 651.25,0 785.75,0 785.75,-41.75"/>
<text xml:space="preserve" text-anchor="start" x="659.25" y="-28.25" font-family="Helvetica,sans-Serif" font-size="10.00">std::unordered_map</text>
<text xml:space="preserve" text-anchor="start" x="659.25" y="-17" font-family="Helvetica,sans-Serif" font-size="10.00">&lt; fourdst::atomic::Species,</text>
<text xml:space="preserve" text-anchor="middle" x="718.5" y="-5.75" font-family="Helvetica,sans-Serif" font-size="10.00"> double &gt;</text>
</a>
</g>
</g>
<!-- Node10&#45;&gt;Node2 -->
<g id="edge10_Node000002_Node000010" class="edge">
<title>Node10&#45;&gt;Node2</title>
<g id="a_edge10_Node000002_Node000010"><a xlink:title=" ">
<path fill="none" stroke="#9a32cd" stroke-dasharray="5,2" d="M797.34,-9.41C840.72,-7.65 892.44,-14.01 925.25,-46.62 968.88,-90 904.19,-136.34 943.25,-183.88 945.9,-187.1 948.99,-189.89 952.39,-192.31"/>
<polygon fill="#9a32cd" stroke="#9a32cd" points="797.23,-5.91 787.45,-9.97 797.63,-12.9 797.23,-5.91"/>
</a>
</g>
<text xml:space="preserve" text-anchor="middle" x="867.12" y="-48.38" font-family="Helvetica,sans-Serif" font-size="10.00" fill="grey"> m_algebraic_abundances</text>
</g>
<!-- Node11 -->
<g id="Node000011" class="node">
<title>Node11</title>
<g id="a_Node000011"><a xlink:title=" ">
<polygon fill="white" stroke="#666666" points="771.88,-382.5 665.12,-382.5 665.12,-363.25 771.88,-363.25 771.88,-382.5"/>
<text xml:space="preserve" text-anchor="middle" x="718.5" y="-369" font-family="Helvetica,sans-Serif" font-size="10.00">std::vector&lt; size_t &gt;</text>
</a>
</g>
</g>
<!-- Node11&#45;&gt;Node2 -->
<g id="edge11_Node000002_Node000011" class="edge">
<title>Node11&#45;&gt;Node2</title>
<g id="a_edge11_Node000002_Node000011"><a xlink:title=" ">
<path fill="none" stroke="#9a32cd" stroke-dasharray="5,2" d="M783.41,-367.09C826.34,-360.75 882.64,-347.51 925.25,-319.88 963.61,-294.99 992.87,-248.02 1006.29,-223.57"/>
<polygon fill="#9a32cd" stroke="#9a32cd" points="783.17,-363.59 773.74,-368.42 784.12,-370.52 783.17,-363.59"/>
</a>
</g>
<text xml:space="preserve" text-anchor="middle" x="867.12" y="-374.85" font-family="Helvetica,sans-Serif" font-size="10.00" fill="grey"> m_activeReactionIndices</text>
<text xml:space="preserve" text-anchor="middle" x="867.12" y="-363.6" font-family="Helvetica,sans-Serif" font-size="10.00" fill="grey">m_activeSpeciesIndices</text>
</g>
<!-- Node12 -->
<g id="Node000012" class="node">
<title>Node12</title>
<g id="a_Node000012"><a xlink:title=" ">
<polygon fill="white" stroke="#666666" points="782.75,-149.75 654.25,-149.75 654.25,-108 782.75,-108 782.75,-149.75"/>
<text xml:space="preserve" text-anchor="start" x="662.25" y="-136.25" font-family="Helvetica,sans-Serif" font-size="10.00">std::unordered_map</text>
<text xml:space="preserve" text-anchor="start" x="662.25" y="-125" font-family="Helvetica,sans-Serif" font-size="10.00">&lt; gridfire::QSECacheKey,</text>
<text xml:space="preserve" text-anchor="middle" x="718.5" y="-113.75" font-family="Helvetica,sans-Serif" font-size="10.00"> std::vector&lt; double &gt; &gt;</text>
</a>
</g>
</g>
<!-- Node12&#45;&gt;Node2 -->
<g id="edge12_Node000002_Node000012" class="edge">
<title>Node12&#45;&gt;Node2</title>
<g id="a_edge12_Node000002_Node000012"><a xlink:title=" ">
<path fill="none" stroke="#9a32cd" stroke-dasharray="5,2" d="M794.46,-121.78C836.11,-121.49 887.07,-127.53 925.25,-152.62 938.64,-161.43 930.86,-173.71 943.25,-183.88 947.08,-187.02 951.34,-189.75 955.82,-192.14"/>
<polygon fill="#9a32cd" stroke="#9a32cd" points="794.41,-118.28 784.49,-121.99 794.56,-125.28 794.41,-118.28"/>
</a>
</g>
<text xml:space="preserve" text-anchor="middle" x="867.12" y="-154.38" font-family="Helvetica,sans-Serif" font-size="10.00" fill="grey"> m_qse_abundance_cache</text>
</g>
<!-- Node13 -->
<g id="Node000013" class="node">
<title>Node13</title>
<g id="a_Node000013"><a xlink:href="structgridfire_1_1_q_s_e_cache_key.html" target="_top" xlink:title="Key struct for the QSE abundance cache.">
<polygon fill="white" stroke="#666666" points="508.38,-147.5 390.38,-147.5 390.38,-128.25 508.38,-128.25 508.38,-147.5"/>
<text xml:space="preserve" text-anchor="middle" x="449.38" y="-134" font-family="Helvetica,sans-Serif" font-size="10.00">gridfire::QSECacheKey</text>
</a>
</g>
</g>
<!-- Node13&#45;&gt;Node12 -->
<g id="edge13_Node000012_Node000013" class="edge">
<title>Node13&#45;&gt;Node12</title>
<g id="a_edge13_Node000012_Node000013"><a xlink:title=" ">
<path fill="none" stroke="#9a32cd" stroke-dasharray="5,2" d="M520.07,-135.53C561.59,-134.13 613.87,-132.37 654.2,-131.01"/>
<polygon fill="#9a32cd" stroke="#9a32cd" points="520.06,-132.03 510.18,-135.86 520.29,-139.02 520.06,-132.03"/>
</a>
</g>
<text xml:space="preserve" text-anchor="middle" x="583.75" y="-136.46" font-family="Helvetica,sans-Serif" font-size="10.00" fill="grey"> keys</text>
</g>
<!-- Node14 -->
<g id="Node000014" class="node">
<title>Node14</title>
<g id="a_Node000014"><a xlink:title=" ">
<polygon fill="white" stroke="#666666" points="250.12,-123.5 141.12,-123.5 141.12,-104.25 250.12,-104.25 250.12,-123.5"/>
<text xml:space="preserve" text-anchor="middle" x="195.62" y="-110" font-family="Helvetica,sans-Serif" font-size="10.00">std::vector&lt; double &gt;</text>
</a>
</g>
</g>
<!-- Node14&#45;&gt;Node12 -->
<g id="edge16_Node000012_Node000014" class="edge">
<title>Node14&#45;&gt;Node12</title>
<g id="a_edge16_Node000012_Node000014"><a xlink:title=" ">
<path fill="none" stroke="#9a32cd" stroke-dasharray="5,2" d="M261.66,-111.08C296.03,-109.74 338.92,-108.29 377.25,-107.62 441.35,-106.52 457.48,-104.16 521.5,-107.62 565.93,-110.03 615.78,-115.47 654.09,-120.24"/>
<polygon fill="#9a32cd" stroke="#9a32cd" points="261.72,-107.58 251.87,-111.47 262,-114.57 261.72,-107.58"/>
</a>
</g>
<text xml:space="preserve" text-anchor="middle" x="449.38" y="-109.38" font-family="Helvetica,sans-Serif" font-size="10.00" fill="grey"> elements</text>
</g>
<!-- Node14&#45;&gt;Node13 -->
<g id="edge14_Node000013_Node000014" class="edge">
<title>Node14&#45;&gt;Node13</title>
<g id="a_edge14_Node000013_Node000014"><a xlink:title=" ">
<path fill="none" stroke="#9a32cd" stroke-dasharray="5,2" d="M261.73,-120.08C301.36,-123.86 351.57,-128.65 389.93,-132.3"/>
<polygon fill="#9a32cd" stroke="#9a32cd" points="262.12,-116.6 251.83,-119.14 261.45,-123.57 262.12,-116.6"/>
</a>
</g>
<text xml:space="preserve" text-anchor="middle" x="318.75" y="-130.48" font-family="Helvetica,sans-Serif" font-size="10.00" fill="grey"> m_Y</text>
</g>
<!-- Node15 -->
<g id="Node000015" class="node">
<title>Node15</title>
<g id="a_Node000015"><a xlink:href="structgridfire_1_1_q_s_e_cache_config.html" target="_top" xlink:title="Configuration struct for the QSE cache.">
<polygon fill="white" stroke="#666666" points="260.25,-175.5 131,-175.5 131,-156.25 260.25,-156.25 260.25,-175.5"/>
<text xml:space="preserve" text-anchor="middle" x="195.62" y="-162" font-family="Helvetica,sans-Serif" font-size="10.00">gridfire::QSECacheConfig</text>
</a>
</g>
</g>
<!-- Node15&#45;&gt;Node13 -->
<g id="edge15_Node000013_Node000015" class="edge">
<title>Node15&#45;&gt;Node13</title>
<g id="a_edge15_Node000013_Node000015"><a xlink:title=" ">
<path fill="none" stroke="#9a32cd" stroke-dasharray="5,2" d="M271.49,-157.55C309.46,-153.33 354.88,-148.27 390.19,-144.35"/>
<polygon fill="#9a32cd" stroke="#9a32cd" points="271.53,-154.02 261.98,-158.61 272.31,-160.98 271.53,-154.02"/>
</a>
</g>
<text xml:space="preserve" text-anchor="middle" x="318.75" y="-157.77" font-family="Helvetica,sans-Serif" font-size="10.00" fill="grey"> m_cacheConfig</text>
</g>
<!-- Node16 -->
<g id="Node000016" class="node">
<title>Node16</title>
<g id="a_Node000016"><a xlink:href="structgridfire_1_1_multiscale_partitioning_engine_view_1_1_cache_stats.html" target="_top" xlink:title="Struct for tracking cache statistics.">
<polygon fill="white" stroke="#666666" points="790.62,-285.12 646.38,-285.12 646.38,-254.62 790.62,-254.62 790.62,-285.12"/>
<text xml:space="preserve" text-anchor="start" x="654.38" y="-271.62" font-family="Helvetica,sans-Serif" font-size="10.00">gridfire::MultiscalePartitioning</text>
<text xml:space="preserve" text-anchor="middle" x="718.5" y="-260.38" font-family="Helvetica,sans-Serif" font-size="10.00">EngineView::CacheStats</text>
</a>
</g>
</g>
<!-- Node16&#45;&gt;Node2 -->
<g id="edge17_Node000002_Node000016" class="edge">
<title>Node16&#45;&gt;Node2</title>
<g id="a_edge17_Node000002_Node000016"><a xlink:title=" ">
<path fill="none" stroke="#9a32cd" stroke-dasharray="5,2" d="M801.9,-253.43C839.55,-245.83 884.69,-236.56 925.25,-227.88 931.61,-226.51 938.21,-225.07 944.83,-223.62"/>
<polygon fill="#9a32cd" stroke="#9a32cd" points="801.58,-249.93 792.47,-255.34 802.96,-256.79 801.58,-249.93"/>
</a>
</g>
<text xml:space="preserve" text-anchor="middle" x="867.12" y="-252.86" font-family="Helvetica,sans-Serif" font-size="10.00" fill="grey"> m_cacheStats</text>
</g>
<!-- Node17 -->
<g id="Node000017" class="node">
<title>Node17</title>
<g id="a_Node000017"><a xlink:title=" ">
<polygon fill="white" stroke="#666666" points="502.75,-310.12 396,-310.12 396,-279.62 502.75,-279.62 502.75,-310.12"/>
<text xml:space="preserve" text-anchor="start" x="404" y="-296.62" font-family="Helvetica,sans-Serif" font-size="10.00">std::map&lt; operators,</text>
<text xml:space="preserve" text-anchor="middle" x="449.38" y="-285.38" font-family="Helvetica,sans-Serif" font-size="10.00"> std::string &gt;</text>
</a>
</g>
</g>
<!-- Node17&#45;&gt;Node16 -->
<g id="edge18_Node000016_Node000017" class="edge">
<title>Node17&#45;&gt;Node16</title>
<g id="a_edge18_Node000016_Node000017"><a xlink:title=" ">
<path fill="none" stroke="#9a32cd" stroke-dasharray="5,2" d="M514.55,-288.87C554.21,-285.16 605.18,-280.39 646.12,-276.56"/>
<polygon fill="#9a32cd" stroke="#9a32cd" points="514.29,-285.38 504.66,-289.79 514.94,-292.35 514.29,-285.38"/>
</a>
</g>
<text xml:space="preserve" text-anchor="middle" x="583.75" y="-287.82" font-family="Helvetica,sans-Serif" font-size="10.00" fill="grey"> operatorsNameMap</text>
</g>
<!-- Node18 -->
<g id="Node000018" class="node">
<title>Node18</title>
<g id="a_Node000018"><a xlink:title=" ">
<polygon fill="white" stroke="#666666" points="225.38,-304.5 165.88,-304.5 165.88,-285.25 225.38,-285.25 225.38,-304.5"/>
<text xml:space="preserve" text-anchor="middle" x="195.62" y="-291" font-family="Helvetica,sans-Serif" font-size="10.00">std::string</text>
</a>
</g>
</g>
<!-- Node18&#45;&gt;Node17 -->
<g id="edge19_Node000017_Node000018" class="edge">
<title>Node18&#45;&gt;Node17</title>
<g id="a_edge19_Node000017_Node000018"><a xlink:title=" ">
<path fill="none" stroke="#9a32cd" stroke-dasharray="5,2" d="M236.94,-294.88C280.02,-294.88 348.49,-294.88 395.78,-294.88"/>
<polygon fill="#9a32cd" stroke="#9a32cd" points="237.02,-291.38 227.02,-294.88 237.02,-298.38 237.02,-291.38"/>
</a>
</g>
<text xml:space="preserve" text-anchor="middle" x="318.75" y="-296.62" font-family="Helvetica,sans-Serif" font-size="10.00" fill="grey"> elements</text>
</g>
<!-- Node19 -->
<g id="Node000019" class="node">
<title>Node19</title>
<g id="a_Node000019"><a xlink:title=" ">
<polygon fill="white" stroke="#666666" points="94,-310.12 0,-310.12 0,-279.62 94,-279.62 94,-310.12"/>
<text xml:space="preserve" text-anchor="start" x="8" y="-296.62" font-family="Helvetica,sans-Serif" font-size="10.00">std::basic_string&lt;</text>
<text xml:space="preserve" text-anchor="middle" x="47" y="-285.38" font-family="Helvetica,sans-Serif" font-size="10.00"> Char &gt;</text>
</a>
</g>
</g>
<!-- Node19&#45;&gt;Node18 -->
<g id="edge20_Node000018_Node000019" class="edge">
<title>Node19&#45;&gt;Node18</title>
<g id="a_edge20_Node000018_Node000019"><a xlink:title=" ">
<path fill="none" stroke="#63b8ff" d="M105.88,-294.88C126.35,-294.88 148.51,-294.88 165.57,-294.88"/>
<polygon fill="#63b8ff" stroke="#63b8ff" points="105.91,-291.38 95.91,-294.88 105.91,-298.38 105.91,-291.38"/>
</a>
</g>
</g>
<!-- Node20 -->
<g id="Node000020" class="node">
<title>Node20</title>
<g id="a_Node000020"><a xlink:title=" ">
<polygon fill="white" stroke="#666666" points="502.75,-261.12 396,-261.12 396,-230.62 502.75,-230.62 502.75,-261.12"/>
<text xml:space="preserve" text-anchor="start" x="404" y="-247.62" font-family="Helvetica,sans-Serif" font-size="10.00">std::map&lt; operators,</text>
<text xml:space="preserve" text-anchor="middle" x="449.38" y="-236.38" font-family="Helvetica,sans-Serif" font-size="10.00"> size_t &gt;</text>
</a>
</g>
</g>
<!-- Node20&#45;&gt;Node16 -->
<g id="edge21_Node000016_Node000020" class="edge">
<title>Node20&#45;&gt;Node16</title>
<g id="a_edge21_Node000016_Node000020"><a xlink:title=" ">
<path fill="none" stroke="#9a32cd" stroke-dasharray="5,2" d="M514.2,-243.97C548.12,-243.76 590.46,-244.76 628,-249.38 637.33,-250.52 647.12,-252.23 656.65,-254.18"/>
<polygon fill="#9a32cd" stroke="#9a32cd" points="514.51,-240.47 504.55,-244.07 514.59,-247.47 514.51,-240.47"/>
</a>
</g>
<text xml:space="preserve" text-anchor="middle" x="583.75" y="-262.38" font-family="Helvetica,sans-Serif" font-size="10.00" fill="grey"> m_operatorHits</text>
<text xml:space="preserve" text-anchor="middle" x="583.75" y="-251.12" font-family="Helvetica,sans-Serif" font-size="10.00" fill="grey">m_operatorMisses</text>
</g>
<!-- Node21 -->
<g id="Node000021" class="node">
<title>Node21</title>
<g id="a_Node000021"><a xlink:title=" ">
<polygon fill="white" stroke="#666666" points="1082.62,-174.75 948.12,-174.75 948.12,-133 1082.62,-133 1082.62,-174.75"/>
<text xml:space="preserve" text-anchor="start" x="956.12" y="-161.25" font-family="Helvetica,sans-Serif" font-size="10.00">std::unordered_map</text>
<text xml:space="preserve" text-anchor="start" x="956.12" y="-150" font-family="Helvetica,sans-Serif" font-size="10.00">&lt; fourdst::atomic::Species,</text>
<text xml:space="preserve" text-anchor="middle" x="1015.38" y="-138.75" font-family="Helvetica,sans-Serif" font-size="10.00"> size_t &gt;</text>
</a>
</g>
</g>
<!-- Node21&#45;&gt;Node1 -->
<g id="edge23_Node000001_Node000021" class="edge">
<title>Node21&#45;&gt;Node1</title>
<g id="a_edge23_Node000001_Node000021"><a xlink:title=" ">
<path fill="none" stroke="#9a32cd" stroke-dasharray="5,2" d="M1094.16,-162.63C1128.43,-167.15 1169.05,-173.4 1205.25,-181.38 1218.65,-184.33 1232.98,-188.24 1246.14,-192.15"/>
<polygon fill="#9a32cd" stroke="#9a32cd" points="1094.66,-159.17 1084.29,-161.36 1093.76,-166.11 1094.66,-159.17"/>
</a>
</g>
<text xml:space="preserve" text-anchor="start" x="1105.5" y="-194.38" font-family="Helvetica,sans-Serif" font-size="10.00" fill="grey"> m_qse_solve_species</text>
<text xml:space="preserve" text-anchor="middle" x="1155.38" y="-183.12" font-family="Helvetica,sans-Serif" font-size="10.00" fill="grey">_index_map</text>
</g>
</g>
</svg>

<g id="navigator" transform="translate(0 0)" fill="#404254">
  <rect fill="#f2f5e9" fill-opacity="0.5" stroke="#606060" stroke-width=".5" x="0" y="0" width="60" height="60"/>
  <use id="zoomplus" xlink:href="#zoomPlus" x="17" y="9" onmousedown="handleZoom(evt,'in')"/>
  <use id="zoomminus" xlink:href="#zoomMin" x="42" y="9" onmousedown="handleZoom(evt,'out')"/>
  <use id="reset" xlink:href="#resetDef" x="30" y="36" onmousedown="handleReset()"/>
   <use id="arrowup" xlink:href="#arrowUp" x="0" y="0" onmousedown="handlePan(0,-1)"/>
  <use id="arrowright" xlink:href="#arrowRight" x="0" y="0" onmousedown="handlePan(1,0)"/>
  <use id="arrowdown" xlink:href="#arrowDown" x="0" y="0" onmousedown="handlePan(0,1)"/>
  <use id="arrowleft" xlink:href="#arrowLeft" x="0" y="0" onmousedown="handlePan(-1,0)"/>
</g>
<svg viewBox="0 0 15 15" width="100%" height="30px" preserveAspectRatio="xMaxYMin meet">
 <g id="arrow_out" transform="scale(0.3 0.3)">
  <a xlink:href="structgridfire_1_1_multiscale_partitioning_engine_view_1_1_eigen_functor__coll__graph_org.svg" target="_base">
   <rect id="button" ry="5" rx="5" y="6" x="6" height="38" width="38"
        fill="#f2f5e9" fill-opacity="0.5" stroke="#606060" stroke-width="1.0"/>
   <path id="arrow"
     d="M 11.500037,31.436501 C 11.940474,20.09759 22.043105,11.32322 32.158766,21.979434 L 37.068811,17.246167 C 37.068811,17.246167 37.088388,32 37.088388,32 L 22.160133,31.978069 C 22.160133,31.978069 26.997745,27.140456 26.997745,27.140456 C 18.528582,18.264221 13.291696,25.230495 11.500037,31.436501 z"
     style="fill:#404040;"/>
  </a>
 </g>
</svg>

<style type='text/css'>
<![CDATA[
[data-mouse-over-selected='false'] { opacity: 0.7; }
[data-mouse-over-selected='true']  { opacity: 1.0; }
]]>
</style>
<script type="application/ecmascript"><![CDATA[
document.addEventListener('DOMContentLoaded', (event) => {
  highlightEdges();
  highlightAdjacentNodes();
});
]]></script>
</svg>
